<?xml version="1.0" encoding="UTF-8"?>
<svg id="Layer_2" data-name="Layer 2" xmlns="http://www.w3.org/2000/svg" viewBox="0 0 108.07 67.47">
  <defs>
    <style>
      .cls-1 {
        fill: gray;
      }
    </style>
  </defs>
  <g id="Layer_2-2" data-name="Layer 2">
    <g id="Layer_1-2" data-name="Layer 1-2">
      <path class="cls-1" d="M.01,67.43v-27.47c9.54-1.17,18.41-3.93,25.47-10.99H.04V.06H28.85V23.7c.66,.28,.81-.15,1-.54,2.14-4.31,4.28-8.62,6.42-12.93,1.59-3.21,3.19-6.41,4.76-9.63,.23-.45,.49-.6,.99-.6C48.85,.01,55.67,0,62.5,.01c.21,0,.42,.03,.72,.06V23.54c.66,.29,.78-.16,.96-.51,1.69-3.25,3.38-6.5,5.06-9.75,2.2-4.25,4.4-8.5,6.63-12.73,.14-.26,.55-.53,.83-.53C86.95,0,97.2,0,107.46,0c.18,0,.35,.04,.61,.07-.79,1.56-1.55,3.05-2.32,4.55-5.07,9.92-10.15,19.85-15.22,29.77-5.53,10.8-11.06,21.6-16.57,32.41-.26,.5-.55,.67-1.11,.67-10.25-.02-20.5-.01-30.76-.01-.26,0-.51-.02-.87-.04,4.81-9.32,9.58-18.55,14.34-27.77-.06-.07-.12-.15-.18-.22-.27,.2-.59,.34-.79,.59-2.67,3.4-5.62,6.52-8.87,9.37-6.56,5.74-13.99,9.99-22.16,12.98-7.27,2.67-14.8,4.2-22.49,5-.34,.04-.68,.04-1.07,.05H.01Z"/>
    </g>
  </g>
</svg>